<?xml version="1.0" encoding="utf-8"?>
<!-- Generator: Adobe Illustrator 25.2.1, SVG Export Plug-In . SVG Version: 6.00 Build 0)  -->
<svg version="1.1" id="レイヤー_1" xmlns="http://www.w3.org/2000/svg" xmlns:xlink="http://www.w3.org/1999/xlink" x="0px"
	 y="0px" viewBox="0 0 600 400" style="enable-background:new 0 0 600 400;" xml:space="preserve">
<style type="text/css">
	.st0{clip-path:url(#SVGID_2_);fill:#005BAC;}
</style>
<g>
	<defs>
		<rect id="SVGID_1_" width="600" height="400"/>
	</defs>
	<clipPath id="SVGID_2_">
		<use xlink:href="#SVGID_1_"  style="overflow:visible;"/>
	</clipPath>
	<path class="st0" d="M292.6,243.6h8.3l30.4-49.7l16.6,56.8h33.1l-33.7-107.1h-13.8l-40.8,63.5l-40.8-63.5h-13.8l-33.7,106.5h33.1
		l16.6-56.8l30.4,49.7h8.3V243.6z"/>
	<path class="st0" d="M205.9,190.6h-91.6c-4.7-1.2-9.5,1.6-10.7,6.4c-1.2,4.7,1.6,9.5,6.4,10.7c1.4,0.4,2.9,0.4,4.4,0h54.1
		c-6.6,17.1-28.1,29.2-54.1,29.2s-55.7-18.2-55.7-40.3S83.4,157,114.3,157c15.3-0.4,30.3,4.5,42.5,13.8h38.1
		c-16-16.6-45.8-28.1-80-28.1c-50.8-1.1-92.2,23.7-92.2,54.1s41.4,55.2,92.2,55.2s91.6-24.3,91.6-55.2
		C206.5,194.7,206.3,192.6,205.9,190.6z"/>
	<path class="st0" d="M470.8,141.5c-50.8,0-92.2,24.8-92.2,55.2s41.4,55.2,92.2,55.2S563,227,563,196.7S521.6,141.5,470.8,141.5z
		 M470.8,236.4c-30.9,0-55.7-17.7-55.7-39.7s24.8-39.7,55.7-39.7s55.7,18.2,55.7,39.7S501.7,237,470.8,237V236.4z"/>
</g>
</svg>
